# xmcd CD database file generated by GCD 2.96
# 
# Track frame offsets:
#       150
#       11085
#       30357
#       39171
# 
# Disc length: 644 seconds
# 
# Revision: 0
# Processed by: cddbd v1.4PL0 Copyright (c) Steve Scherf et al.
# Submitted via: GCD 2.96
# 
DISCID=1f028204
DTITLE=The Hurtin' Unit - Demo 02-2001
DYEAR=1900
DGENRE=
TTITLE0=Paradise
TTITLE1=Hickory WInd
TTITLE2=Loon Haunt
TTITLE3=Ginseng Sullivan
EXTD=
EXTT0=
EXTT1=
EXTT2=
EXTT3=
PLAYORDER=
